<svg width="19" height="21" xmlns="http://www.w3.org/2000/svg" xmlns:xlink="http://www.w3.org/1999/xlink" xmlns:svgjs="http://svgjs.com/svgjs" viewBox="0.048 0 18.905 21" fill="#fff"><svg xmlns="http://www.w3.org/2000/svg" width="19" height="21" viewBox="1.997 1.999 18.005 20.001"><path paint-order="stroke fill markers" fill-rule="evenodd" d="M3.205 22h15.59c.664 0 1.207-.574 1.207-1.274V3.273c0-.7-.543-1.274-1.207-1.274H3.205c-.666 0-1.208.574-1.208 1.274v17.453c0 .7.542 1.274 1.208 1.274zM17.057 3.557c0-.211.165-.382.363-.382h1.131c.2 0 .362.17.362.382v1.23a.372.372 0 01-.362.383H17.42a.374.374 0 01-.363-.383v-1.23zm0 3.13c0-.21.165-.382.363-.382h1.131c.2 0 .362.171.362.383v1.23c0 .21-.162.383-.362.383H17.42a.375.375 0 01-.363-.383v-1.23zm0 3.133c0-.21.165-.383.363-.383h1.131c.2 0 .362.172.362.383v1.231c0 .21-.162.382-.362.382H17.42a.375.375 0 01-.363-.382v-1.23zm0 3.13c0-.21.165-.383.363-.383h1.131c.2 0 .362.172.362.383v1.231a.373.373 0 01-.362.383H17.42a.374.374 0 01-.363-.383v-1.23zm0 3.131c0-.211.165-.383.363-.383h1.131c.2 0 .362.172.362.383v1.231c0 .21-.162.381-.362.381H17.42a.374.374 0 01-.363-.38V16.08zm0 3.13c0-.21.165-.382.363-.382h1.131c.2 0 .362.172.362.382v1.233a.373.373 0 01-.362.381H17.42a.374.374 0 01-.363-.381V19.21zM6.183 4.481c0-.212.163-.382.363-.382h8.908c.198 0 .362.17.362.382v6.093c0 .21-.164.383-.362.383H6.546a.375.375 0 01-.363-.383V4.481zm0 9.396c0-.21.163-.38.363-.38h8.908c.198 0 .362.17.362.38v5.633c0 .21-.164.382-.362.382H6.546a.374.374 0 01-.363-.382v-5.633zM3.086 3.557c0-.211.162-.382.362-.382H4.58c.199 0 .361.17.361.382v1.23a.373.373 0 01-.361.383H3.448a.373.373 0 01-.362-.383v-1.23zm0 3.13c0-.21.162-.382.362-.382H4.58c.199 0 .361.171.361.383v1.23c0 .21-.162.383-.361.383H3.448a.373.373 0 01-.362-.383v-1.23zm0 3.133c0-.21.162-.383.362-.383H4.58c.199 0 .361.172.361.383v1.231c0 .21-.162.382-.361.382H3.448a.374.374 0 01-.362-.382v-1.23zm0 3.13c0-.21.162-.383.362-.383H4.58c.199 0 .361.172.361.383v1.231c0 .212-.162.383-.361.383H3.448a.373.373 0 01-.362-.383v-1.23zm0 3.131c0-.211.162-.383.362-.383H4.58c.199 0 .361.172.361.383v1.231c0 .21-.162.381-.361.381H3.448a.373.373 0 01-.362-.38V16.08zm0 3.13c0-.21.162-.382.362-.382H4.58c.199 0 .361.172.361.382v1.233a.373.373 0 01-.361.381H3.448a.373.373 0 01-.362-.381V19.21z"/></svg></svg>