<svg width="22" height="17" xmlns="http://www.w3.org/2000/svg" xmlns:xlink="http://www.w3.org/1999/xlink" xmlns:svgjs="http://svgjs.com/svgjs" viewBox="0 0.113 22 16.774" fill="#fff"><svg xmlns="http://www.w3.org/2000/svg" width="22" height="17" viewBox="1.987 1.981 21.005 16.016"><path paint-order="stroke fill markers" fill-rule="evenodd" d="M17.63 9.239c-.975.456-1.77 1.84-2.7.927-.565-.603-1.236-1.561-2.006-2.646-.834-1.166-1.896-2.168-3.145-1.023-1.395 1.29-2.354 4.787-2.437 6.588l13.183.003c-.302-1.057-1.473-4.514-2.895-3.85zm-.061-5.216c.895 0 1.62.713 1.62 1.592 0 .88-.725 1.592-1.62 1.592-.895 0-1.621-.713-1.621-1.592 0-.88.726-1.592 1.62-1.592zm4.94-2.042H5.358a.478.478 0 00-.481.474v2.393H2.469a.478.478 0 00-.482.473v12.202c0 .262.216.474.482.474h17.153a.478.478 0 00.482-.474V15.13h2.406a.478.478 0 00.482-.473V2.455a.478.478 0 00-.482-.474zM18.81 16.726H3.28V6.118h1.596v7.376c-.243.918-.392 1.8-.422 2.457l13.183.004a14.657 14.657 0 00-.265-.825h1.438v1.596zm2.888-2.866H6.168V3.252h15.53V13.86z"/></svg></svg>