<svg width="23" height="17" xmlns="http://www.w3.org/2000/svg" xmlns:xlink="http://www.w3.org/1999/xlink" xmlns:svgjs="http://svgjs.com/svgjs" viewBox="0 0.133 23 16.733" fill="#fff"><svg xmlns="http://www.w3.org/2000/svg" width="23" height="17" viewBox="1.009 1.002 21.98 15.991"><path paint-order="stroke fill markers" fill-rule="evenodd" d="M14.741 6.643a3.264 3.264 0 00-3.26 3.262 3.265 3.265 0 003.26 3.263 3.263 3.263 0 000-6.525zm5.34-3.98h-1.394l-1.769-1.66h-4.911l-1.437 1.66H7.604c-.132-.549-.491-.923-.921-.923H4.586c-.432 0-.794.379-.924.935a2.914 2.914 0 00-2.653 2.9v8.506a2.915 2.915 0 002.91 2.913h16.162a2.914 2.914 0 002.908-2.913V5.576a2.914 2.914 0 00-2.908-2.914zM3.64 13.32a.55.55 0 01-1.1 0V7.513a.55.55 0 111.1 0v5.807zm3.31-8.507c0 .32-.26.58-.58.58H4.878a.58.58 0 01-.58-.58V4.47a.58.58 0 01.58-.58h1.49a.58.58 0 01.581.58v.342zm7.792 9.747a4.658 4.658 0 01-4.65-4.655 4.658 4.658 0 014.65-4.655 4.657 4.657 0 014.648 4.655 4.657 4.657 0 01-4.648 4.655z"/></svg></svg>