<svg xmlns="http://www.w3.org/2000/svg" width="18" height="18"><path paint-order="stroke fill markers" fill-rule="evenodd" d="M14.967 8.202l-2.57 2.57a3.633 3.633 0 01-5.14 0 3.597 3.597 0 01-.552-.733L7.9 8.844c.056-.056.127-.09.194-.128.082.282.226.55.448.771.709.71 1.862.708 2.57 0l2.569-2.569a1.819 1.819 0 000-2.57 1.82 1.82 0 00-2.57 0l-.913.915A4.557 4.557 0 007.88 5.01l1.947-1.947a3.635 3.635 0 015.14 5.14zm-6.795 4.226l-.915.914a1.82 1.82 0 01-2.57 0 1.82 1.82 0 010-2.57l2.57-2.57a1.819 1.819 0 012.57 0c.221.222.365.489.449.77.067-.038.136-.07.193-.128l1.194-1.193a3.581 3.581 0 00-.551-.733 3.633 3.633 0 00-5.14 0l-2.57 2.57a3.635 3.635 0 005.14 5.14l1.948-1.948a4.563 4.563 0 01-2.318-.252z"/></svg>