<svg xmlns="http://www.w3.org/2000/svg" width="17" height="17"><path paint-order="stroke fill markers" fill-rule="evenodd" d="M14.977 13.501l-2.794-2.794a5.578 5.578 0 001.01-3.25c0-.778-.15-1.52-.452-2.23a5.734 5.734 0 00-1.222-1.832 5.74 5.74 0 00-1.833-1.223 5.646 5.646 0 00-2.229-.452c-.777 0-1.52.151-2.228.452a5.74 5.74 0 00-1.833 1.223 5.733 5.733 0 00-1.223 1.833 5.636 5.636 0 00-.452 2.228c0 .777.151 1.52.452 2.229.302.708.71 1.32 1.223 1.833.513.513 1.124.92 1.833 1.222a5.623 5.623 0 002.228.452 5.577 5.577 0 003.251-1.01l2.794 2.786c.196.206.44.31.734.31a1 1 0 00.733-.31 1 1 0 00.31-.733c0-.288-.1-.533-.302-.734zm-4.941-3.466c-.715.714-1.574 1.07-2.579 1.07a3.513 3.513 0 01-2.578-1.07c-.715-.715-1.072-1.574-1.072-2.579 0-1.005.357-1.864 1.072-2.578.714-.715 1.573-1.072 2.578-1.072s1.864.357 2.579 1.072c.714.714 1.071 1.573 1.071 2.578s-.357 1.864-1.071 2.579z"/></svg>