<svg xmlns="http://www.w3.org/2000/svg" width="27" height="43"><path paint-order="stroke fill markers" fill-rule="evenodd" d="M22.74 1.892H4.269c-1.799 0-3.26 1.439-3.26 3.209v33.686c0 1.77 1.461 3.207 3.26 3.207h18.47c1.8 0 3.26-1.438 3.26-3.207V5.1c0-1.77-1.46-3.209-3.26-3.209zm-12.223 2.93c0-.438.358-.791.804-.791h4.367c.446 0 .804.353.804.791v.022a.796.796 0 01-.804.791h-4.367a.796.796 0 01-.804-.79v-.023zm2.987 35.969c-.972 0-1.766-.78-1.766-1.737 0-.957.794-1.738 1.766-1.738.973 0 1.766.781 1.766 1.738s-.793 1.737-1.766 1.737zm9.779-5.213a.54.54 0 01-.543.534H4.269a.54.54 0 01-.543-.534V8.308a.54.54 0 01.543-.534h18.47a.54.54 0 01.544.535v27.269zm-2.711-16.041H6.437a.534.534 0 00-.538.53v.01c0 .293.24.529.538.529h14.135a.533.533 0 00.538-.53v-.01c0-.292-.24-.53-.538-.53zm-.005-8.555h-1.63a.54.54 0 00-.543.535v1.604c0 .295.243.534.544.534h1.63c.299 0 .542-.24.542-.534v-1.604a.539.539 0 00-.543-.535zm-5.976 2.674h1.63c.3 0 .542-.24.542-.535v-1.604a.539.539 0 00-.542-.534h-1.63a.54.54 0 00-.543.534v1.604a.54.54 0 00.543.535zm5.98 9.09H6.438a.534.534 0 00-.538.529v.01c0 .293.24.53.538.53h14.135a.534.534 0 00.538-.53v-.01c0-.293-.24-.53-.538-.53zM6.438 17.398h9.246a.534.534 0 00.538-.53v-.01a.534.534 0 00-.538-.53H6.437a.534.534 0 00-.538.53v.01c0 .293.24.53.538.53zm14.135 8.555H6.437a.533.533 0 00-.538.53v.01c0 .292.24.529.538.529h14.135a.534.534 0 00.538-.53v-.01c0-.293-.24-.53-.538-.53zM6.442 13.656h1.63a.54.54 0 00.543-.535v-1.604a.54.54 0 00-.543-.534h-1.63a.54.54 0 00-.543.534v1.604a.54.54 0 00.543.535zm4.346 0h1.63c.3 0 .543-.24.543-.535v-1.604a.539.539 0 00-.543-.534h-1.63a.54.54 0 00-.543.534v1.604a.54.54 0 00.543.535zm9.784 18.714H6.437a.533.533 0 00-.538.53v.01c0 .292.24.53.538.53h14.135a.534.534 0 00.538-.53v-.01c0-.294-.24-.53-.538-.53zm0-3.208H6.437a.533.533 0 00-.538.53v.01c0 .292.24.53.538.53h14.135a.534.534 0 00.538-.53v-.01c0-.293-.24-.53-.538-.53z"/></svg>