<svg xmlns="http://www.w3.org/2000/svg" width="44" height="42"><path paint-order="stroke fill markers" fill-rule="evenodd" d="M37.223 16.06l-.194-.069-.754-1.807.082-.185c2.286-5.2 2.128-5.356 1.749-5.733L35.058 5.28a.817.817 0 00-.533-.211c-.171 0-.69 0-5.192 2.046l-.18.081-1.857-.75-.075-.186C25.104 1 24.887 1 24.361 1h-4.305c-.525 0-.764 0-2.727 5.27l-.074.192-1.847.756-.177-.074C12.184 5.854 10.405 5.2 9.941 5.2a.817.817 0 00-.533.209l-3.05 2.993c-.388.383-.548.543 1.857 5.636l.088.19-.756 1.804-.185.072c-5.364 2.08-5.364 2.283-5.364 2.825v4.233c0 .543 0 .769 5.375 2.703l.192.068.756 1.8-.081.184C5.955 33.12 6.1 33.26 6.489 33.65l3.043 2.989c.128.123.349.21.537.21.17 0 .688 0 5.193-2.045l.18-.085 1.859.755.072.187c2.118 5.259 2.336 5.259 2.863 5.259h4.306c.54 0 .764 0 2.729-5.274l.074-.192 1.85-.751.176.072c3.045 1.293 4.822 1.945 5.283 1.945a.815.815 0 00.536-.208l3.056-3c.384-.384.544-.542-1.865-5.63l-.09-.19.754-1.798.18-.07c5.374-2.092 5.374-2.296 5.374-2.839v-4.23c0-.544 0-.768-5.376-2.694zM22.298 27.827c-3.846 0-6.976-3.081-6.976-6.866 0-3.783 3.13-6.86 6.976-6.86 3.845 0 6.975 3.077 6.975 6.86 0 3.784-3.13 6.866-6.975 6.866z"/></svg>