<?xml version="1.0" encoding="utf-8"?><svg viewBox="0 0 45 44" xmlns="http://www.w3.org/2000/svg" xmlns:xlink="http://www.w3.org/1999/xlink"><style>:root>svg{display:none}:root>svg:target{display:block}</style><svg xmlns:svgjs="http://svgjs.com/svgjs" viewBox="0.182 0 9.636 17" fill="#464646" id="arrow" xmlns="http://www.w3.org/2000/svg"><svg width="10" height="17" viewBox="1.987 1.516 8.499 14.993"><path paint-order="stroke fill markers" fill-rule="evenodd" d="M2.293 9.754l6.41 6.447a1.04 1.04 0 001.477 0 1.055 1.055 0 000-1.485L4.508 9.012l5.672-5.704a1.055 1.055 0 000-1.485 1.04 1.04 0 00-1.476 0L2.293 8.27a1.052 1.052 0 000 1.485z"/></svg></svg><svg xmlns:svgjs="http://svgjs.com/svgjs" viewBox="0.048 0 18.905 21" fill="#fff" id="film" xmlns="http://www.w3.org/2000/svg"><svg width="19" height="21" viewBox="1.997 1.999 18.005 20.001"><path paint-order="stroke fill markers" fill-rule="evenodd" d="M3.205 22h15.59c.664 0 1.207-.574 1.207-1.274V3.273c0-.7-.543-1.274-1.207-1.274H3.205c-.666 0-1.208.574-1.208 1.274v17.453c0 .7.542 1.274 1.208 1.274zM17.057 3.557c0-.211.165-.382.363-.382h1.131c.2 0 .362.17.362.382v1.23a.372.372 0 01-.362.383H17.42a.374.374 0 01-.363-.383v-1.23zm0 3.13c0-.21.165-.382.363-.382h1.131c.2 0 .362.171.362.383v1.23c0 .21-.162.383-.362.383H17.42a.375.375 0 01-.363-.383v-1.23zm0 3.133c0-.21.165-.383.363-.383h1.131c.2 0 .362.172.362.383v1.231c0 .21-.162.382-.362.382H17.42a.375.375 0 01-.363-.382v-1.23zm0 3.13c0-.21.165-.383.363-.383h1.131c.2 0 .362.172.362.383v1.231a.373.373 0 01-.362.383H17.42a.374.374 0 01-.363-.383v-1.23zm0 3.131c0-.211.165-.383.363-.383h1.131c.2 0 .362.172.362.383v1.231c0 .21-.162.381-.362.381H17.42a.374.374 0 01-.363-.38V16.08zm0 3.13c0-.21.165-.382.363-.382h1.131c.2 0 .362.172.362.382v1.233a.373.373 0 01-.362.381H17.42a.374.374 0 01-.363-.381V19.21zM6.183 4.481c0-.212.163-.382.363-.382h8.908c.198 0 .362.17.362.382v6.093c0 .21-.164.383-.362.383H6.546a.375.375 0 01-.363-.383V4.481zm0 9.396c0-.21.163-.38.363-.38h8.908c.198 0 .362.17.362.38v5.633c0 .21-.164.382-.362.382H6.546a.374.374 0 01-.363-.382v-5.633zM3.086 3.557c0-.211.162-.382.362-.382H4.58c.199 0 .361.17.361.382v1.23a.373.373 0 01-.361.383H3.448a.373.373 0 01-.362-.383v-1.23zm0 3.13c0-.21.162-.382.362-.382H4.58c.199 0 .361.171.361.383v1.23c0 .21-.162.383-.361.383H3.448a.373.373 0 01-.362-.383v-1.23zm0 3.133c0-.21.162-.383.362-.383H4.58c.199 0 .361.172.361.383v1.231c0 .21-.162.382-.361.382H3.448a.374.374 0 01-.362-.382v-1.23zm0 3.13c0-.21.162-.383.362-.383H4.58c.199 0 .361.172.361.383v1.231c0 .212-.162.383-.361.383H3.448a.373.373 0 01-.362-.383v-1.23zm0 3.131c0-.211.162-.383.362-.383H4.58c.199 0 .361.172.361.383v1.231c0 .21-.162.381-.361.381H3.448a.373.373 0 01-.362-.38V16.08zm0 3.13c0-.21.162-.382.362-.382H4.58c.199 0 .361.172.361.382v1.233a.373.373 0 01-.361.381H3.448a.373.373 0 01-.362-.381V19.21z"/></svg></svg><svg xmlns:svgjs="http://svgjs.com/svgjs" viewBox="0 0.133 23 16.733" fill="#fff" id="foto" xmlns="http://www.w3.org/2000/svg"><svg width="23" height="17" viewBox="1.009 1.002 21.98 15.991"><path paint-order="stroke fill markers" fill-rule="evenodd" d="M14.741 6.643a3.265 3.265 0 00-3.26 3.262 3.265 3.265 0 003.26 3.263 3.263 3.263 0 000-6.525zm5.34-3.98h-1.394l-1.769-1.66h-4.911l-1.437 1.66H7.604c-.132-.548-.491-.923-.921-.923H4.586c-.432 0-.794.38-.924.934A2.915 2.915 0 001.01 5.575v8.506a2.915 2.915 0 002.91 2.913h16.16a2.914 2.914 0 002.91-2.913V5.575a2.914 2.914 0 00-2.91-2.913zM3.64 13.318a.55.55 0 01-1.1 0V7.513a.55.55 0 111.1 0v5.806zm3.31-8.505c0 .32-.26.58-.58.58H4.877a.58.58 0 01-.58-.58v-.341a.58.58 0 01.58-.582h1.49c.32 0 .58.26.58.582v.34zm7.792 9.746a4.658 4.658 0 01-4.65-4.654 4.658 4.658 0 014.65-4.655 4.657 4.657 0 014.648 4.655 4.656 4.656 0 01-4.648 4.654z"/></svg></svg><svg xmlns:svgjs="http://svgjs.com/svgjs" viewBox="0 0.113 22 16.774" fill="#fff" id="icon-image" xmlns="http://www.w3.org/2000/svg"><svg width="22" height="17" viewBox="1.987 1.981 21.005 16.016"><path paint-order="stroke fill markers" fill-rule="evenodd" d="M17.63 9.239c-.975.456-1.77 1.84-2.7.927-.565-.603-1.236-1.561-2.006-2.646-.834-1.166-1.896-2.168-3.145-1.023-1.395 1.29-2.354 4.787-2.437 6.588l13.183.003c-.302-1.057-1.473-4.514-2.895-3.85zm-.061-5.216c.895 0 1.62.713 1.62 1.592 0 .88-.725 1.592-1.62 1.592-.895 0-1.621-.713-1.621-1.592 0-.88.726-1.592 1.62-1.592zm4.94-2.042H5.358a.478.478 0 00-.481.474v2.393H2.469a.478.478 0 00-.482.473v12.202c0 .262.216.474.482.474h17.153a.478.478 0 00.482-.474V15.13h2.406a.478.478 0 00.482-.473V2.455a.478.478 0 00-.482-.474zM18.81 16.726H3.28V6.118h1.596v7.376c-.243.918-.392 1.8-.422 2.457l13.183.004a14.657 14.657 0 00-.265-.825h1.438v1.596zm2.888-2.866H6.168V3.252h15.53V13.86z"/></svg></svg><svg xmlns:svgjs="http://svgjs.com/svgjs" viewBox="0 0.133 23 16.733" fill="#fff" id="icon_(3)" xmlns="http://www.w3.org/2000/svg"><svg width="23" height="17" viewBox="1.009 1.002 21.98 15.991"><path paint-order="stroke fill markers" fill-rule="evenodd" d="M14.741 6.643a3.264 3.264 0 00-3.26 3.262 3.265 3.265 0 003.26 3.263 3.263 3.263 0 000-6.525zm5.34-3.98h-1.394l-1.769-1.66h-4.911l-1.437 1.66H7.604c-.132-.549-.491-.923-.921-.923H4.586c-.432 0-.794.379-.924.935a2.914 2.914 0 00-2.653 2.9v8.506a2.915 2.915 0 002.91 2.913h16.162a2.914 2.914 0 002.908-2.913V5.576a2.914 2.914 0 00-2.908-2.914zM3.64 13.32a.55.55 0 01-1.1 0V7.513a.55.55 0 111.1 0v5.807zm3.31-8.507c0 .32-.26.58-.58.58H4.878a.58.58 0 01-.58-.58V4.47a.58.58 0 01.58-.58h1.49a.58.58 0 01.581.58v.342zm7.792 9.747a4.658 4.658 0 01-4.65-4.655 4.658 4.658 0 014.65-4.655 4.657 4.657 0 014.648 4.655 4.657 4.657 0 01-4.648 4.655z"/></svg></svg><svg viewBox="0 0 41 42" id="leaf" xmlns="http://www.w3.org/2000/svg"><path paint-order="stroke fill markers" fill-rule="evenodd" d="M34.214 1.398s-3.253 3.129-6.77 4.39C1.398 15.134 12.383 33.342 12.741 33.402c0 0 1.46-2.522 3.434-3.961 12.52-9.128 15.064-19.636 15.064-19.636s-2.81 12.644-13.948 20.511c-2.46 1.737-4.125 6.013-4.83 10.286 0 0 1.743-.698 2.493-.887.293-1.893.904-3.705 1.938-5.324 15.567 1.838 20.665-10.602 21.331-14.94 1.571-10.246-4.01-18.052-4.01-18.052z"/></svg><svg viewBox="0 0 18 18" id="link" xmlns="http://www.w3.org/2000/svg"><path paint-order="stroke fill markers" fill-rule="evenodd" d="M14.967 8.202l-2.57 2.57a3.633 3.633 0 01-5.14 0 3.597 3.597 0 01-.552-.733L7.9 8.844c.056-.056.127-.09.194-.128.082.282.226.55.448.771.709.71 1.862.708 2.57 0l2.569-2.569a1.819 1.819 0 000-2.57 1.82 1.82 0 00-2.57 0l-.913.915A4.557 4.557 0 007.88 5.01l1.947-1.947a3.635 3.635 0 015.14 5.14zm-6.795 4.226l-.915.914a1.82 1.82 0 01-2.57 0 1.82 1.82 0 010-2.57l2.57-2.57a1.819 1.819 0 012.57 0c.221.222.365.489.449.77.067-.038.136-.07.193-.128l1.194-1.193a3.581 3.581 0 00-.551-.733 3.633 3.633 0 00-5.14 0l-2.57 2.57a3.635 3.635 0 005.14 5.14l1.948-1.948a4.563 4.563 0 01-2.318-.252z"/></svg><svg viewBox="0 0 17 17" id="lope" xmlns="http://www.w3.org/2000/svg"><path paint-order="stroke fill markers" fill-rule="evenodd" d="M14.977 13.501l-2.794-2.794a5.578 5.578 0 001.01-3.25c0-.778-.15-1.52-.452-2.23a5.734 5.734 0 00-1.222-1.832 5.74 5.74 0 00-1.833-1.223 5.646 5.646 0 00-2.229-.452c-.777 0-1.52.151-2.228.452a5.74 5.74 0 00-1.833 1.223 5.733 5.733 0 00-1.223 1.833 5.636 5.636 0 00-.452 2.228c0 .777.151 1.52.452 2.229.302.708.71 1.32 1.223 1.833.513.513 1.124.92 1.833 1.222a5.623 5.623 0 002.228.452 5.577 5.577 0 003.251-1.01l2.794 2.786c.196.206.44.31.734.31a1 1 0 00.733-.31 1 1 0 00.31-.733c0-.288-.1-.533-.302-.734zm-4.941-3.466c-.715.714-1.574 1.07-2.579 1.07-1.005 0-1.864-.356-2.578-1.07-.715-.715-1.072-1.574-1.072-2.579 0-1.005.357-1.864 1.072-2.578.714-.715 1.573-1.072 2.578-1.072s1.864.357 2.579 1.072c.714.714 1.071 1.573 1.071 2.578s-.357 1.864-1.071 2.579z"/></svg><svg viewBox="0 0 27 43" id="mobile" xmlns="http://www.w3.org/2000/svg"><path paint-order="stroke fill markers" fill-rule="evenodd" d="M22.74 1.892H4.269c-1.799 0-3.26 1.439-3.26 3.209v33.686c0 1.77 1.461 3.207 3.26 3.207h18.47c1.8 0 3.26-1.438 3.26-3.207V5.1c0-1.77-1.46-3.209-3.26-3.209zm-12.223 2.93c0-.438.358-.791.804-.791h4.367c.446 0 .804.353.804.791v.022c0 .438-.358.791-.804.791h-4.367a.796.796 0 01-.804-.79v-.023zm2.987 35.969c-.972 0-1.766-.78-1.766-1.737 0-.957.794-1.738 1.766-1.738.973 0 1.766.781 1.766 1.738s-.793 1.737-1.766 1.737zm9.779-5.213a.54.54 0 01-.543.534H4.269a.54.54 0 01-.543-.534V8.308a.54.54 0 01.543-.534h18.47a.54.54 0 01.544.535v27.269zm-2.711-16.041H6.437a.534.534 0 00-.538.53v.01c0 .293.24.529.538.529h14.135a.533.533 0 00.538-.53v-.01c0-.292-.24-.53-.538-.53zm-.005-8.555h-1.63a.54.54 0 00-.543.535v1.604c0 .295.243.534.544.534h1.63c.299 0 .542-.24.542-.534v-1.604a.539.539 0 00-.543-.535zm-5.976 2.674h1.63c.3 0 .542-.24.542-.535v-1.604a.539.539 0 00-.542-.534h-1.63a.54.54 0 00-.543.534v1.604c0 .295.244.535.543.535zm5.98 9.09H6.438a.534.534 0 00-.538.529v.01c0 .293.24.53.538.53h14.135a.534.534 0 00.538-.53v-.01c0-.293-.24-.53-.538-.53zM6.438 17.398h9.246a.534.534 0 00.538-.53v-.01a.534.534 0 00-.538-.53H6.437a.534.534 0 00-.538.53v.01c0 .293.24.53.538.53zm14.135 8.555H6.437a.533.533 0 00-.538.53v.01c0 .292.24.529.538.529h14.135a.534.534 0 00.538-.53v-.01c0-.293-.24-.53-.538-.53zM6.442 13.656h1.63c.299 0 .543-.24.543-.535v-1.604a.54.54 0 00-.543-.534h-1.63c-.3 0-.543.24-.543.534v1.604c0 .295.243.535.543.535zm4.346 0h1.63c.3 0 .543-.24.543-.535v-1.604a.539.539 0 00-.543-.534h-1.63a.54.54 0 00-.543.534v1.604c0 .295.244.535.543.535zm9.784 18.714H6.437a.533.533 0 00-.538.53v.01c0 .292.24.53.538.53h14.135a.534.534 0 00.538-.53v-.01c0-.294-.24-.53-.538-.53zm0-3.208H6.437a.533.533 0 00-.538.53v.01c0 .292.24.53.538.53h14.135a.534.534 0 00.538-.53v-.01c0-.293-.24-.53-.538-.53z"/></svg><svg viewBox="0 0 44 42" id="shevron" xmlns="http://www.w3.org/2000/svg"><path paint-order="stroke fill markers" fill-rule="evenodd" d="M37.223 16.06l-.194-.069-.754-1.807.082-.185c2.286-5.2 2.128-5.356 1.749-5.733L35.058 5.28a.817.817 0 00-.533-.211c-.171 0-.69 0-5.192 2.046l-.18.081-1.857-.75-.075-.186c-2.117-5.26-2.334-5.26-2.86-5.26h-4.305c-.525 0-.764 0-2.727 5.27l-.074.192-1.847.756-.177-.074c-3.047-1.29-4.826-1.944-5.29-1.944a.817.817 0 00-.533.209l-3.05 2.993c-.388.383-.548.543 1.857 5.636l.088.19-.756 1.804-.185.072c-5.364 2.08-5.364 2.283-5.364 2.825v4.233c0 .543 0 .769 5.375 2.703l.192.068.756 1.8-.081.184C5.955 33.12 6.1 33.26 6.489 33.65l3.043 2.989c.128.123.349.21.537.21.17 0 .688 0 5.193-2.045l.18-.085 1.859.755.072.187c2.118 5.259 2.336 5.259 2.863 5.259h4.306c.54 0 .764 0 2.729-5.274l.074-.192 1.85-.751.176.072c3.045 1.293 4.822 1.945 5.283 1.945a.815.815 0 00.536-.208l3.056-3c.384-.384.544-.542-1.865-5.63l-.09-.19.754-1.798.18-.07c5.374-2.092 5.374-2.296 5.374-2.839v-4.23c0-.544 0-.768-5.376-2.694zM22.298 27.827c-3.846 0-6.976-3.081-6.976-6.866 0-3.783 3.13-6.86 6.976-6.86 3.845 0 6.975 3.077 6.975 6.86 0 3.784-3.13 6.866-6.975 6.866z"/></svg><svg viewBox="0 0 45 44" id="star" xmlns="http://www.w3.org/2000/svg"><path paint-order="stroke fill markers" fill-rule="evenodd" d="M40.552 16.268c-.645-1.986.235-4.766-.971-6.418-1.218-1.67-4.15-1.687-5.823-2.903-1.657-1.203-2.573-3.985-4.564-4.629-1.92-.622-4.292 1.07-6.421 1.07-2.128 0-4.501-1.692-6.421-1.07-1.99.644-2.907 3.426-4.565 4.629C10.114 8.163 7.184 8.18 5.966 9.85c-1.206 1.652-.326 4.432-.972 6.418C4.37 18.183 2 19.908 2 22.031c0 2.123 2.372 3.846 2.996 5.763.645 1.985-.235 4.766.972 6.419 1.218 1.669 4.148 1.686 5.822 2.901 1.657 1.203 2.573 3.986 4.564 4.631 1.92.622 4.292-1.072 6.42-1.072 2.13 0 4.502 1.694 6.422 1.072 1.99-.645 2.907-3.428 4.564-4.63 1.673-1.215 4.604-1.233 5.823-2.902 1.205-1.652.325-4.433.97-6.418.625-1.916 2.997-3.64 2.997-5.764-.002-2.124-2.373-3.847-2.997-5.763zM22.773 36.572c-8.038 0-14.577-6.522-14.577-14.541 0-8.018 6.539-14.54 14.577-14.54S37.35 14.012 37.35 22.03c0 8.019-6.539 14.54-14.577 14.54zm0-26.707c-6.726 0-12.197 5.457-12.197 12.166 0 6.709 5.471 12.167 12.197 12.167 6.726 0 12.197-5.458 12.197-12.167S29.5 9.865 22.773 9.865zM30.896 20.6l-3.947 3.27 1.267 4.958a.735.735 0 01-1.106.802l-4.337-2.734-4.336 2.734a.74.74 0 01-.826-.027.732.732 0 01-.28-.775l1.267-4.958-3.947-3.27a.73.73 0 01-.23-.79.736.736 0 01.653-.507l5.119-.33 1.897-4.754a.735.735 0 011.367 0l1.898 4.754 5.119.33c.3.02.559.221.652.506.092.286.001.6-.23.791z"/></svg></svg>