<svg xmlns="http://www.w3.org/2000/svg" width="45" height="44"><path paint-order="stroke fill markers" fill-rule="evenodd" d="M40.552 16.268c-.645-1.986.235-4.766-.971-6.418-1.218-1.67-4.15-1.687-5.823-2.903-1.657-1.203-2.573-3.985-4.564-4.629-1.92-.622-4.292 1.07-6.421 1.07-2.128 0-4.501-1.692-6.421-1.07-1.99.644-2.907 3.426-4.565 4.629C10.114 8.163 7.184 8.18 5.966 9.85c-1.206 1.652-.326 4.432-.972 6.418C4.37 18.183 2 19.908 2 22.031c0 2.123 2.372 3.846 2.996 5.763.645 1.985-.235 4.766.972 6.419 1.218 1.669 4.148 1.686 5.822 2.901 1.657 1.203 2.573 3.986 4.564 4.631 1.92.622 4.292-1.072 6.42-1.072 2.13 0 4.502 1.694 6.422 1.072 1.99-.645 2.907-3.428 4.564-4.63 1.673-1.215 4.604-1.233 5.823-2.902 1.205-1.652.325-4.433.97-6.418.625-1.916 2.997-3.64 2.997-5.764-.002-2.124-2.373-3.847-2.997-5.763zM22.773 36.572c-8.038 0-14.577-6.522-14.577-14.541 0-8.018 6.539-14.54 14.577-14.54S37.35 14.012 37.35 22.03c0 8.019-6.539 14.54-14.577 14.54zm0-26.707c-6.726 0-12.197 5.457-12.197 12.166 0 6.709 5.471 12.167 12.197 12.167 6.726 0 12.197-5.458 12.197-12.167S29.5 9.865 22.773 9.865zM30.896 20.6l-3.947 3.27 1.267 4.958a.735.735 0 01-1.106.802l-4.337-2.734-4.336 2.734a.74.74 0 01-.826-.027.732.732 0 01-.28-.775l1.267-4.958-3.947-3.27a.73.73 0 01-.23-.79.736.736 0 01.653-.507l5.119-.33 1.897-4.754a.735.735 0 011.367 0l1.898 4.754 5.119.33a.735.735 0 01.422 1.297z"/></svg>