<svg width="23" height="17" xmlns="http://www.w3.org/2000/svg" xmlns:xlink="http://www.w3.org/1999/xlink" xmlns:svgjs="http://svgjs.com/svgjs" viewBox="0 0.133 23 16.733" fill="#fff"><svg xmlns="http://www.w3.org/2000/svg" width="23" height="17" viewBox="1.009 1.002 21.98 15.991"><path paint-order="stroke fill markers" fill-rule="evenodd" d="M14.741 6.643a3.265 3.265 0 0 0-3.26 3.262 3.265 3.265 0 0 0 3.26 3.263 3.263 3.263 0 0 0 0-6.525zm5.34-3.98h-1.394l-1.769-1.66h-4.911l-1.437 1.66H7.604c-.132-.548-.491-.923-.921-.923H4.586c-.432 0-.794.38-.924.934A2.915 2.915 0 0 0 1.01 5.575v8.506a2.915 2.915 0 0 0 2.91 2.913H20.08a2.914 2.914 0 0 0 2.91-2.913V5.575a2.914 2.914 0 0 0-2.91-2.913zM3.64 13.318a.55.55 0 0 1-1.1 0V7.513a.55.55 0 1 1 1.1 0v5.806zM6.95 4.813c0 .32-.26.58-.58.58H4.877c-.32 0-.58-.26-.58-.58v-.341c0-.322.26-.582.58-.582h1.49c.32 0 .58.26.58.582v.34zm7.792 9.746a4.658 4.658 0 0 1-4.65-4.654 4.658 4.658 0 0 1 4.65-4.655 4.657 4.657 0 0 1 4.648 4.655 4.656 4.656 0 0 1-4.648 4.654z"/></svg></svg>