<svg version="1.1" xmlns="http://www.w3.org/2000/svg" xmlns:xlink="http://www.w3.org/1999/xlink" width="41" height="42"><defs/><g><path fill="rgb(0,0,0)" stroke="none" paint-order="stroke fill markers" fill-rule="evenodd" d=" M 34.213661193847656 1.398023247718811 C 34.213661193847656 1.398023247718811 30.96125030517578 4.526933789253235 27.444137573242188 5.788850545883179 C 1.3978424072265625 15.132500171661377 12.382682800292969 33.34139633178711 12.740997314453125 33.400875210762024 C 12.740997314453125 33.400875210762024 14.201606750488281 30.87864923477173 16.17456817626953 29.439903378486633 C 28.694290161132812 20.3116637468338 31.238998413085938 9.804478645324707 31.238998413085938 9.804478645324707 C 31.238998413085938 9.804478645324707 28.429588317871094 22.44775927066803 17.291397094726562 30.315046668052673 C 14.831489562988281 32.052472949028015 13.165687561035156 36.328200578689575 12.460617065429688 40.60135614871979 C 12.460617065429688 40.60135614871979 14.204353332519531 39.90336346626282 14.95428466796875 39.71367406845093 C 15.246681213378906 37.82095968723297 15.858024597167969 36.00862216949463 16.89165496826172 34.390475153923035 C 32.458595275878906 36.228211760520935 37.55693817138672 23.78780233860016 38.22309875488281 19.4493807554245 C 39.79448699951172 9.20390272140503 34.213661193847656 1.398023247718811 34.213661193847656 1.398023247718811 Z"/></g></svg>