<svg version="1.1" xmlns="http://www.w3.org/2000/svg" xmlns:xlink="http://www.w3.org/1999/xlink" width="18" height="18"><defs/><g><path fill="rgb(0,0,0)" stroke="none" paint-order="stroke fill markers" fill-rule="evenodd" d=" M 14.966621398925781 8.202401638031006 C 14.966621398925781 8.202401638031006 12.396278381347656 10.771567702293396 12.396278381347656 10.771567702293396 C 10.977554321289062 12.191344618797302 8.676033020019531 12.191344618797302 7.2573089599609375 10.771567702293396 C 7.03369140625 10.549084544181824 6.858940124511719 10.298308730125427 6.705474853515625 10.038852214813232 C 6.705474853515625 10.038852214813232 7.899665832519531 8.844452023506165 7.899665832519531 8.844452023506165 C 7.956428527832031 8.787545204162598 8.026580810546875 8.754751443862915 8.093528747558594 8.715849041938782 C 8.176040649414062 8.998132586479187 8.320236206054688 9.265626788139343 8.542022705078125 9.48714542388916 C 9.250526428222656 10.196390867233276 10.403518676757812 10.195426344871521 11.111564636230469 9.48714542388916 C 11.111564636230469 9.48714542388916 13.680992126464844 6.91797935962677 13.680992126464844 6.91797935962677 C 14.389839172363281 6.208733916282654 14.389839172363281 5.056129693984985 13.680992126464844 4.3478487730026245 C 12.972946166992188 3.6395678520202637 11.820411682128906 3.6395678520202637 11.111564636230469 4.3478487730026245 C 11.111564636230469 4.3478487730026245 10.197639465332031 5.262537479400635 10.197639465332031 5.262537479400635 C 9.456405639648438 4.97382378578186 8.657379150390625 4.895697474479675 7.879638671875 5.0098326206207275 C 7.879638671875 5.0098326206207275 9.826736450195312 3.0627834796905518 9.826736450195312 3.0627834796905518 C 11.246376037597656 1.6436495780944824 13.546981811523438 1.6436495780944824 14.966621398925781 3.0627834796905518 C 16.385345458984375 4.4822388887405396 16.385345458984375 6.782946228981018 14.966621398925781 8.202401638031006 Z M 8.171577453613281 12.427974104881287 C 8.171577453613281 12.427974104881287 7.2573089599609375 13.34201979637146 7.2573089599609375 13.34201979637146 C 6.548805236816406 14.049979209899902 5.39581298828125 14.049979209899902 4.6874237060546875 13.34201979637146 C 3.9789199829101562 12.633095860481262 3.9789199829101562 11.48113465309143 4.6874237060546875 10.771567702293396 C 4.6874237060546875 10.771567702293396 7.2573089599609375 8.202401638031006 7.2573089599609375 8.202401638031006 C 7.966270446777344 7.493799209594727 9.11834716796875 7.493799209594727 9.826736450195312 8.202401638031006 C 10.048179626464844 8.423920273780823 10.192375183105469 8.690771460533142 10.275688171386719 8.97241199016571 C 10.343208312988281 8.933509588241577 10.412445068359375 8.901358842849731 10.469207763671875 8.844452023506165 C 10.469207763671875 8.844452023506165 11.663398742675781 7.650694847106934 11.663398742675781 7.650694847106934 C 11.510848999023438 7.391238331794739 11.335182189941406 7.141105532646179 11.111564636230469 6.91797935962677 C 9.692840576171875 5.498202443122864 7.391319274902344 5.498202443122864 5.972137451171875 6.91797935962677 C 5.972137451171875 6.91797935962677 3.4027099609375 9.48714542388916 3.4027099609375 9.48714542388916 C 1.9835281372070312 10.906600832939148 1.9835281372070312 13.207308173179626 3.4027099609375 14.627085089683533 C 4.82177734375 16.045575976371765 7.122955322265625 16.045575976371765 8.542022705078125 14.627085089683533 C 8.542022705078125 14.627085089683533 10.489578247070312 12.679714441299438 10.489578247070312 12.679714441299438 C 9.711494445800781 12.79384958744049 8.912467956542969 12.716044783592224 8.171577453613281 12.427974104881287 Z"/></g></svg>