<svg version="1.1" xmlns="http://www.w3.org/2000/svg" xmlns:xlink="http://www.w3.org/1999/xlink" width="17" height="17"><defs/><g><path fill="rgb(0,0,0)" stroke="none" paint-order="stroke fill markers" fill-rule="evenodd" d=" M 14.976997375488281 13.501165986061096 C 14.976997375488281 13.501165986061096 12.182579040527344 10.706944704055786 12.182579040527344 10.706944704055786 C 12.856063842773438 9.73502767086029 13.192977905273438 8.651226043701172 13.192977905273438 7.456182837486267 C 13.192977905273438 6.6790993213653564 13.042144775390625 5.936738610267639 12.740707397460938 5.227814674377441 C 12.43927001953125 4.518890738487244 12.0318603515625 3.9083480834960938 11.518592834472656 3.394900679588318 C 11.005325317382812 2.881453275680542 10.394439697265625 2.474103331565857 9.685592651367188 2.172207832336426 C 8.976631164550781 1.87127685546875 8.233795166015625 1.7204898595809937 7.457084655761719 1.7204898595809937 C 6.6803741455078125 1.7204898595809937 5.937538146972656 1.87127685546875 5.2288055419921875 2.172207832336426 C 4.519844055175781 2.474103331565857 3.908843994140625 2.881453275680542 3.3955764770507812 3.394900679588318 C 2.8821945190429688 3.9083480834960938 2.4748992919921875 4.518890738487244 2.1734619140625 5.227814674377441 C 1.8720245361328125 5.936738610267639 1.7213058471679688 6.6790993213653564 1.7213058471679688 7.456182837486267 C 1.7213058471679688 8.23294484615326 1.8720245361328125 8.975948572158813 2.1734619140625 9.684551000595093 C 2.4748992919921875 10.39347493648529 2.8821945190429688 11.004339098930359 3.3955764770507812 11.517786502838135 C 3.908843994140625 12.030912399291992 4.51995849609375 12.438262343406677 5.2288055419921875 12.739514827728271 C 5.937652587890625 13.041731834411621 6.6803741455078125 13.192197322845459 7.457084655761719 13.192197322845459 C 8.652191162109375 13.192197322845459 9.735832214355469 12.855579018592834 10.7080078125 12.181699395179749 C 10.7080078125 12.181699395179749 13.502426147460938 14.967561483383179 13.502426147460938 14.967561483383179 C 13.697891235351562 15.174290776252747 13.942108154296875 15.277494668960571 14.235649108886719 15.277494668960571 C 14.517974853515625 15.277494668960571 14.762649536132812 15.174290776252747 14.968757629394531 14.967561483383179 C 15.175209045410156 14.761796712875366 15.278434753417969 14.51712954044342 15.278434753417969 14.234524488449097 C 15.278549194335938 13.947096824645996 15.178184509277344 13.70242965221405 14.976997375488281 13.501165986061096 Z M 10.035781860351562 10.034672617912292 C 9.321441650390625 10.749062180519104 8.461990356445312 11.105935454368591 7.457084655761719 11.105935454368591 C 6.452293395996094 11.105935454368591 5.5927276611328125 10.749062180519104 4.878501892089844 10.034672617912292 C 4.164161682128906 9.320283055305481 3.8069915771484375 8.461215138435364 3.8069915771484375 7.456182837486267 C 3.8069915771484375 6.451472043991089 4.164276123046875 5.591761112213135 4.878501892089844 4.877693057060242 C 5.592613220214844 4.16330349445343 6.452293395996094 3.806430220603943 7.457084655761719 3.806430220603943 C 8.461875915527344 3.806430220603943 9.321327209472656 4.16330349445343 10.035781860351562 4.877693057060242 C 10.750007629394531 5.591761112213135 11.107292175292969 6.451472043991089 11.107292175292969 7.456182837486267 C 11.107292175292969 8.461215138435364 10.750007629394531 9.320283055305481 10.035781860351562 10.034672617912292 Z"/></g></svg>