<svg version="1.1" xmlns="http://www.w3.org/2000/svg" xmlns:xlink="http://www.w3.org/1999/xlink" width="27" height="43"><defs/><g><path fill="rgb(0,0,0)" stroke="none" paint-order="stroke fill markers" fill-rule="evenodd" d=" M 22.73987579345703 1.8919705152511597 C 22.73987579345703 1.8919705152511597 4.268768310546875 1.8919705152511597 4.268768310546875 1.8919705152511597 C 2.4703292846679688 1.8919705152511597 1.009033203125 3.330716371536255 1.009033203125 5.100614905357361 C 1.009033203125 5.100614905357361 1.009033203125 38.786558389663696 1.009033203125 38.786558389663696 C 1.009033203125 40.5564569234848 2.4703292846679688 41.993916749954224 4.268768310546875 41.993916749954224 C 4.268768310546875 41.993916749954224 22.73987579345703 41.993916749954224 22.73987579345703 41.993916749954224 C 24.538429260253906 41.993916749954224 25.99938201904297 40.5564569234848 25.99938201904297 38.786558389663696 C 25.99938201904297 38.786558389663696 25.99938201904297 5.100614905357361 25.99938201904297 5.100614905357361 C 25.99938201904297 3.330716371536255 24.538429260253906 1.8919705152511597 22.73987579345703 1.8919705152511597 Z M 10.516670227050781 4.822189450263977 C 10.516670227050781 4.38397479057312 10.874755859375 4.030638098716736 11.321075439453125 4.030638098716736 C 11.321075439453125 4.030638098716736 15.688484191894531 4.030638098716736 15.688484191894531 4.030638098716736 C 16.133773803710938 4.030638098716736 16.49231719970703 4.38397479057312 16.49231719970703 4.822189450263977 C 16.49231719970703 4.822189450263977 16.49231719970703 4.844051957130432 16.49231719970703 4.844051957130432 C 16.49231719970703 5.281623601913452 16.133773803710938 5.634960293769836 15.688484191894531 5.634960293769836 C 15.688484191894531 5.634960293769836 11.321075439453125 5.634960293769836 11.321075439453125 5.634960293769836 C 10.874755859375 5.634960293769836 10.516670227050781 5.281623601913452 10.516670227050781 4.844051957130432 C 10.516670227050781 4.844051957130432 10.516670227050781 4.822189450263977 10.516670227050781 4.822189450263977 Z M 13.504264831542969 40.79083585739136 C 12.532203674316406 40.79083585739136 11.738441467285156 40.01085877418518 11.738441467285156 39.05405259132385 C 11.738441467285156 38.097246408462524 12.5318603515625 37.315983295440674 13.504264831542969 37.315983295440674 C 14.476554870605469 37.315983295440674 15.270317077636719 38.097246408462524 15.270317077636719 39.05405259132385 C 15.270317077636719 40.01085877418518 14.476554870605469 40.79083585739136 13.504264831542969 40.79083585739136 Z M 23.282669067382812 35.57759249210358 C 23.282669067382812 35.871771812438965 23.038795471191406 36.11225938796997 22.73987579345703 36.11225938796997 C 22.73987579345703 36.11225938796997 4.268768310546875 36.11225938796997 4.268768310546875 36.11225938796997 C 3.9701919555664062 36.11225938796997 3.7257461547851562 35.871771812438965 3.7257461547851562 35.57759249210358 C 3.7257461547851562 35.57759249210358 3.7257461547851562 8.308616280555725 3.7257461547851562 8.308616280555725 C 3.7257461547851562 8.014758467674255 3.9701919555664062 7.773949384689331 4.268768310546875 7.773949384689331 C 4.268768310546875 7.773949384689331 22.73987579345703 7.773949384689331 22.73987579345703 7.773949384689331 C 23.038795471191406 7.773949384689331 23.282669067382812 8.014758467674255 23.282669067382812 8.308616280555725 C 23.282669067382812 8.308616280555725 23.282669067382812 35.57759249210358 23.282669067382812 35.57759249210358 Z M 20.57190704345703 19.53662109375 C 20.57190704345703 19.53662109375 6.4365081787109375 19.53662109375 6.4365081787109375 19.53662109375 C 6.1394195556640625 19.53662109375 5.898750305175781 19.773572087287903 5.898750305175781 20.066465377807617 C 5.898750305175781 20.066465377807617 5.898750305175781 20.076753616333008 5.898750305175781 20.076753616333008 C 5.898750305175781 20.369646906852722 6.139076232910156 20.605954885482788 6.4365081787109375 20.605954885482788 C 6.4365081787109375 20.605954885482788 20.57190704345703 20.605954885482788 20.57190704345703 20.605954885482788 C 20.869224548339844 20.605954885482788 21.109779357910156 20.369646906852722 21.109779357910156 20.076753616333008 C 21.109779357910156 20.076753616333008 21.109779357910156 20.066465377807617 21.109779357910156 20.066465377807617 C 21.109779357910156 19.773572087287903 20.86956787109375 19.53662109375 20.57190704345703 19.53662109375 Z M 20.56732940673828 10.982272267341614 C 20.56732940673828 10.982272267341614 18.937576293945312 10.982272267341614 18.937576293945312 10.982272267341614 C 18.63739776611328 10.982272267341614 18.394325256347656 11.222116827964783 18.394325256347656 11.516939163208008 C 18.394325256347656 11.516939163208008 18.394325256347656 13.120618343353271 18.394325256347656 13.120618343353271 C 18.394325256347656 13.416405200958252 18.63739776611328 13.655285239219666 18.937576293945312 13.655285239219666 C 18.937576293945312 13.655285239219666 20.56732940673828 13.655285239219666 20.56732940673828 13.655285239219666 C 20.86670684814453 13.655285239219666 21.109779357910156 13.415440678596497 21.109779357910156 13.120618343353271 C 21.109779357910156 13.120618343353271 21.109779357910156 11.516939163208008 21.109779357910156 11.516939163208008 C 21.109779357910156 11.221795320510864 20.86670684814453 10.982272267341614 20.56732940673828 10.982272267341614 Z M 14.591224670410156 13.655606746673584 C 14.591224670410156 13.655606746673584 16.220977783203125 13.655606746673584 16.220977783203125 13.655606746673584 C 16.520355224609375 13.655606746673584 16.76331329345703 13.416405200958252 16.76331329345703 13.12093985080719 C 16.76331329345703 13.12093985080719 16.76331329345703 11.516939163208008 16.76331329345703 11.516939163208008 C 16.76331329345703 11.222116827964783 16.520355224609375 10.982593774795532 16.220977783203125 10.982593774795532 C 16.220977783203125 10.982593774795532 14.591224670410156 10.982593774795532 14.591224670410156 10.982593774795532 C 14.29150390625 10.982593774795532 14.0479736328125 11.222438335418701 14.0479736328125 11.516939163208008 C 14.0479736328125 11.516939163208008 14.0479736328125 13.12093985080719 14.0479736328125 13.12093985080719 C 14.047172546386719 13.416405200958252 14.29150390625 13.655606746673584 14.591224670410156 13.655606746673584 Z M 20.57190704345703 22.7452654838562 C 20.57190704345703 22.7452654838562 6.4365081787109375 22.7452654838562 6.4365081787109375 22.7452654838562 C 6.1394195556640625 22.7452654838562 5.898750305175781 22.982216477394104 5.898750305175781 23.2747882604599 C 5.898750305175781 23.2747882604599 5.898750305175781 23.28507649898529 5.898750305175781 23.28507649898529 C 5.898750305175781 23.577969789505005 6.139076232910156 23.814920783042908 6.4365081787109375 23.814920783042908 C 6.4365081787109375 23.814920783042908 20.57190704345703 23.814920783042908 20.57190704345703 23.814920783042908 C 20.869224548339844 23.814920783042908 21.109779357910156 23.577969789505005 21.109779357910156 23.28507649898529 C 21.109779357910156 23.28507649898529 21.109779357910156 23.2747882604599 21.109779357910156 23.2747882604599 C 21.109779357910156 22.982216477394104 20.86956787109375 22.7452654838562 20.57190704345703 22.7452654838562 Z M 6.4365081787109375 17.39859652519226 C 6.4365081787109375 17.39859652519226 15.68310546875 17.39859652519226 15.68310546875 17.39859652519226 C 15.979621887207031 17.39859652519226 16.220977783203125 17.161645531654358 16.220977783203125 16.868752241134644 C 16.220977783203125 16.868752241134644 16.220977783203125 16.85878551006317 16.220977783203125 16.85878551006317 C 16.220977783203125 16.566213726997375 15.979965209960938 16.329262733459473 15.68310546875 16.329262733459473 C 15.68310546875 16.329262733459473 6.4365081787109375 16.329262733459473 6.4365081787109375 16.329262733459473 C 6.1394195556640625 16.329262733459473 5.898750305175781 16.566213726997375 5.898750305175781 16.85878551006317 C 5.898750305175781 16.85878551006317 5.898750305175781 16.868752241134644 5.898750305175781 16.868752241134644 C 5.8990936279296875 17.161645531654358 6.1394195556640625 17.39859652519226 6.4365081787109375 17.39859652519226 Z M 20.57190704345703 25.953909873962402 C 20.57190704345703 25.953909873962402 6.4365081787109375 25.953909873962402 6.4365081787109375 25.953909873962402 C 6.1394195556640625 25.953909873962402 5.898750305175781 26.19021785259247 5.898750305175781 26.483111143112183 C 5.898750305175781 26.483111143112183 5.898750305175781 26.493077874183655 5.898750305175781 26.493077874183655 C 5.898750305175781 26.78564965724945 6.139076232910156 27.022600650787354 6.4365081787109375 27.022600650787354 C 6.4365081787109375 27.022600650787354 20.57190704345703 27.022600650787354 20.57190704345703 27.022600650787354 C 20.869224548339844 27.022600650787354 21.109779357910156 26.78564965724945 21.109779357910156 26.493077874183655 C 21.109779357910156 26.493077874183655 21.109779357910156 26.483111143112183 21.109779357910156 26.483111143112183 C 21.109779357910156 26.19021785259247 20.86956787109375 25.953909873962402 20.57190704345703 25.953909873962402 Z M 6.442115783691406 13.655606746673584 C 6.442115783691406 13.655606746673584 8.071640014648438 13.655606746673584 8.071640014648438 13.655606746673584 C 8.371017456054688 13.655606746673584 8.614662170410156 13.416405200958252 8.614662170410156 13.12093985080719 C 8.614662170410156 13.12093985080719 8.614662170410156 11.516939163208008 8.614662170410156 11.516939163208008 C 8.614662170410156 11.222116827964783 8.371017456054688 10.982593774795532 8.071640014648438 10.982593774795532 C 8.071640014648438 10.982593774795532 6.442115783691406 10.982593774795532 6.442115783691406 10.982593774795532 C 6.141937255859375 10.982593774795532 5.8990936279296875 11.222438335418701 5.8990936279296875 11.516939163208008 C 5.8990936279296875 11.516939163208008 5.8990936279296875 13.12093985080719 5.8990936279296875 13.12093985080719 C 5.8990936279296875 13.416405200958252 6.141937255859375 13.655606746673584 6.442115783691406 13.655606746673584 Z M 10.788352966308594 13.655606746673584 C 10.788352966308594 13.655606746673584 12.417877197265625 13.655606746673584 12.417877197265625 13.655606746673584 C 12.717597961425781 13.655606746673584 12.960899353027344 13.416405200958252 12.960899353027344 13.12093985080719 C 12.960899353027344 13.12093985080719 12.960899353027344 11.516939163208008 12.960899353027344 11.516939163208008 C 12.960899353027344 11.222116827964783 12.717597961425781 10.982593774795532 12.417877197265625 10.982593774795532 C 12.417877197265625 10.982593774795532 10.788352966308594 10.982593774795532 10.788352966308594 10.982593774795532 C 10.488517761230469 10.982593774795532 10.245216369628906 11.222438335418701 10.245216369628906 11.516939163208008 C 10.245216369628906 11.516939163208008 10.245216369628906 13.12093985080719 10.245216369628906 13.12093985080719 C 10.244873046875 13.416405200958252 10.488517761230469 13.655606746673584 10.788352966308594 13.655606746673584 Z M 20.57190704345703 32.36991262435913 C 20.57190704345703 32.36991262435913 6.4365081787109375 32.36991262435913 6.4365081787109375 32.36991262435913 C 6.1394195556640625 32.36991262435913 5.898750305175781 32.6062206029892 5.898750305175781 32.89943540096283 C 5.898750305175781 32.89943540096283 5.898750305175781 32.91036665439606 5.898750305175781 32.91036665439606 C 5.898750305175781 33.2019739151001 6.139076232910156 33.43924641609192 6.4365081787109375 33.43924641609192 C 6.4365081787109375 33.43924641609192 20.57190704345703 33.43924641609192 20.57190704345703 33.43924641609192 C 20.869224548339844 33.43924641609192 21.109779357910156 33.2019739151001 21.109779357910156 32.91036665439606 C 21.109779357910156 32.91036665439606 21.109779357910156 32.89943540096283 21.109779357910156 32.89943540096283 C 21.109779357910156 32.6062206029892 20.86956787109375 32.36991262435913 20.57190704345703 32.36991262435913 Z M 20.57190704345703 29.161911249160767 C 20.57190704345703 29.161911249160767 6.4365081787109375 29.161911249160767 6.4365081787109375 29.161911249160767 C 6.1394195556640625 29.161911249160767 5.898750305175781 29.39854073524475 5.898750305175781 29.691434025764465 C 5.898750305175781 29.691434025764465 5.898750305175781 29.701400756835938 5.898750305175781 29.701400756835938 C 5.898750305175781 29.994294047355652 6.139076232910156 30.231245040893555 6.4365081787109375 30.231245040893555 C 6.4365081787109375 30.231245040893555 20.57190704345703 30.231245040893555 20.57190704345703 30.231245040893555 C 20.869224548339844 30.231245040893555 21.109779357910156 29.994294047355652 21.109779357910156 29.701400756835938 C 21.109779357910156 29.701400756835938 21.109779357910156 29.691434025764465 21.109779357910156 29.691434025764465 C 21.109779357910156 29.39854073524475 20.86956787109375 29.161911249160767 20.57190704345703 29.161911249160767 Z"/></g></svg>