<svg version="1.1" xmlns="http://www.w3.org/2000/svg" xmlns:xlink="http://www.w3.org/1999/xlink" width="44" height="42"><defs/><g><path fill="rgb(0,0,0)" stroke="none" paint-order="stroke fill markers" fill-rule="evenodd" d=" M 37.22308349609375 16.060692191123962 C 37.22308349609375 16.060692191123962 37.029335021972656 15.991246581077576 37.029335021972656 15.991246581077576 C 37.029335021972656 15.991246581077576 36.275054931640625 14.184374690055847 36.275054931640625 14.184374690055847 C 36.275054931640625 14.184374690055847 36.35688018798828 13.998543381690979 36.35688018798828 13.998543381690979 C 38.642608642578125 8.798160314559937 38.485023498535156 8.642550706863403 38.10588073730469 8.265743970870972 C 38.10588073730469 8.265743970870972 35.05809020996094 5.281190276145935 35.05809020996094 5.281190276145935 C 34.932777404785156 5.157409906387329 34.71385192871094 5.06963837146759 34.525367736816406 5.06963837146759 C 34.35393524169922 5.06963837146759 33.835174560546875 5.06963837146759 29.332839965820312 7.116033315658569 C 29.332839965820312 7.116033315658569 29.152252197265625 7.197374701499939 29.152252197265625 7.197374701499939 C 29.152252197265625 7.197374701499939 27.295677185058594 6.44697630405426 27.295677185058594 6.44697630405426 C 27.295677185058594 6.44697630405426 27.220603942871094 6.261144995689392 27.220603942871094 6.261144995689392 C 25.10436248779297 1.0006400346755981 24.886695861816406 1.0006400346755981 24.360610961914062 1.0006400346755981 C 24.360610961914062 1.0006400346755981 20.055801391601562 1.0006400346755981 20.055801391601562 1.0006400346755981 C 19.531089782714844 1.0006400346755981 19.292137145996094 1.0006400346755981 17.329132080078125 6.271111726760864 C 17.329132080078125 6.271111726760864 17.255203247070312 6.462730169296265 17.255203247070312 6.462730169296265 C 17.255203247070312 6.462730169296265 15.407669067382812 7.218594193458557 15.407669067382812 7.218594193458557 C 15.407669067382812 7.218594193458557 15.230972290039062 7.1449689865112305 15.230972290039062 7.1449689865112305 C 12.184097290039062 5.855402588844299 10.404998779296875 5.201456427574158 9.941169738769531 5.201456427574158 C 9.753028869628906 5.201456427574158 9.533416748046875 5.28633439540863 9.408218383789062 5.409793257713318 C 9.408218383789062 5.409793257713318 6.357337951660156 8.402706146240234 6.357337951660156 8.402706146240234 C 5.9704132080078125 8.785943031311035 5.809852600097656 8.946053743362427 8.214599609375 14.038731813430786 C 8.214599609375 14.038731813430786 8.302833557128906 14.228099703788757 8.302833557128906 14.228099703788757 C 8.302833557128906 14.228099703788757 7.5474090576171875 16.032721042633057 7.5474090576171875 16.032721042633057 C 7.5474090576171875 16.032721042633057 7.3624725341796875 16.10506021976471 7.3624725341796875 16.10506021976471 C 1.9982833862304688 18.185534954071045 1.9982833862304688 18.387763142585754 1.9982833862304688 18.929824709892273 C 1.9982833862304688 18.929824709892273 1.9982833862304688 23.163434863090515 1.9982833862304688 23.163434863090515 C 1.9982833862304688 23.70646095275879 1.9982833862304688 23.931837677955627 7.373344421386719 25.865705013275146 C 7.373344421386719 25.865705013275146 7.56549072265625 25.93386459350586 7.56549072265625 25.93386459350586 C 7.56549072265625 25.93386459350586 8.321029663085938 27.7339848279953 8.321029663085938 27.7339848279953 C 8.321029663085938 27.7339848279953 8.240005493164062 27.91756558418274 8.240005493164062 27.91756558418274 C 5.9548492431640625 33.121163725852966 6.0999603271484375 33.261340975761414 6.48883056640625 33.65036499500275 C 6.48883056640625 33.65036499500275 9.53204345703125 36.638776779174805 9.53204345703125 36.638776779174805 C 9.659645080566406 36.761914134025574 9.880630493164062 36.84968566894531 10.068771362304688 36.84968566894531 C 10.239173889160156 36.84968566894531 10.757362365722656 36.84968566894531 15.261871337890625 34.80425524711609 C 15.261871337890625 34.80425524711609 15.441886901855469 34.719377279281616 15.441886901855469 34.719377279281616 C 15.441886901855469 34.719377279281616 17.300750732421875 35.473633766174316 17.300750732421875 35.473633766174316 C 17.300750732421875 35.473633766174316 17.372962951660156 35.66075110435486 17.372962951660156 35.66075110435486 C 19.49114990234375 40.91997003555298 19.708816528320312 40.91997003555298 20.235816955566406 40.91997003555298 C 20.235816955566406 40.91997003555298 24.541885375976562 40.91997003555298 24.541885375976562 40.91997003555298 C 25.082504272460938 40.91997003555298 25.306007385253906 40.91997003555298 27.270614624023438 35.64628326892853 C 27.270614624023438 35.64628326892853 27.34454345703125 35.45402181148529 27.34454345703125 35.45402181148529 C 27.34454345703125 35.45402181148529 29.194366455078125 34.702980399131775 29.194366455078125 34.702980399131775 C 29.194366455078125 34.702980399131775 29.371177673339844 34.77531957626343 29.371177673339844 34.77531957626343 C 32.4156494140625 36.06842255592346 34.193031311035156 36.72043967247009 34.65399932861328 36.72043967247009 C 34.84111022949219 36.72043967247009 35.06266784667969 36.638776779174805 35.18992614746094 36.51210284233093 C 35.18992614746094 36.51210284233093 38.2457275390625 33.51275980472565 38.2457275390625 33.51275980472565 C 38.63002014160156 33.127593874931335 38.78955078125 32.97005522251129 36.38056945800781 27.882521271705627 C 36.38056945800781 27.882521271705627 36.29096221923828 27.691545844078064 36.29096221923828 27.691545844078064 C 36.29096221923828 27.691545844078064 37.045127868652344 25.89431917667389 37.045127868652344 25.89431917667389 C 37.045127868652344 25.89431917667389 37.22571563720703 25.82358753681183 37.22571563720703 25.82358753681183 C 42.59883117675781 23.732181549072266 42.59883117675781 23.527702808380127 42.59883117675781 22.98531973361969 C 42.59883117675781 22.98531973361969 42.59883117675781 18.754924654960632 42.59883117675781 18.754924654960632 C 42.59883117675781 18.210934042930603 42.59883117675781 17.98652184009552 37.22308349609375 16.060692191123962 Z M 22.298385620117188 27.82593595981598 C 18.451568603515625 27.82593595981598 15.321952819824219 24.744930028915405 15.321952819824219 20.960465788841248 C 15.321952819824219 17.176644563674927 18.451568603515625 14.099818229675293 22.298385620117188 14.099818229675293 C 26.14325714111328 14.099818229675293 29.272987365722656 17.177287578582764 29.272987365722656 20.960465788841248 C 29.272987365722656 24.74396550655365 26.14325714111328 27.82593595981598 22.298385620117188 27.82593595981598 Z"/></g></svg>