<svg version="1.1" xmlns="http://www.w3.org/2000/svg" xmlns:xlink="http://www.w3.org/1999/xlink" width="45" height="44"><defs/><g><path fill="rgb(0,0,0)" stroke="none" paint-order="stroke fill markers" fill-rule="evenodd" d=" M 40.551612854003906 16.268497824668884 C 39.90696716308594 14.281903266906738 40.78736114501953 11.502471327781677 39.58103942871094 9.84960150718689 C 38.36327362060547 8.180013298988342 35.43141174316406 8.162651896476746 33.75794219970703 6.946710705757141 C 32.10118103027344 5.744272828102112 31.18450927734375 2.962268829345703 29.19403839111328 2.3179678916931152 C 27.27417755126953 1.6955294609069824 24.90216064453125 3.3889092206954956 22.772987365722656 3.3889092206954956 C 20.644729614257812 3.3889092206954956 18.27179718017578 1.6955294609069824 16.35193634033203 2.3179678916931152 C 14.361465454101562 2.961625814437866 13.444793701171875 5.744272828102112 11.7872314453125 6.946710705757141 C 10.113761901855469 8.162651896476746 7.183616638183594 8.180013298988342 5.965850830078125 9.84960150718689 C 4.760444641113281 11.502471327781677 5.639923095703125 14.281903266906738 4.994476318359375 16.268497824668884 C 4.370086669921875 18.183074712753296 1.9989852905273438 19.90731918811798 1.9989852905273438 22.03087592124939 C 1.9989852905273438 24.1544326543808 4.371002197265625 25.87739109992981 4.995277404785156 27.793897032737732 C 5.639923095703125 29.778884053230286 4.759529113769531 32.55992352962494 5.966766357421875 34.21279335021973 C 7.184532165527344 35.88173854351044 10.115478515625 35.89942145347595 11.788948059082031 37.1143981218338 C 13.445709228515625 38.31747901439667 14.362380981445312 41.099804520606995 16.35285186767578 41.745391488075256 C 18.27362823486328 42.366543889045715 20.644729614257812 40.67348563671112 22.773902893066406 40.67348563671112 C 24.903076171875 40.67348563671112 27.27509307861328 42.366543889045715 29.19495391845703 41.745391488075256 C 31.1854248046875 41.10012602806091 32.10209655761719 38.31747901439667 33.75874328613281 37.11504113674164 C 35.432212829589844 35.90038597583771 38.36327362060547 35.88173854351044 39.58195495605469 34.21279335021973 C 40.78736114501953 32.560566544532776 39.90696716308594 29.780491590499878 40.55241394042969 27.795183062553406 C 41.17680358886719 25.878998637199402 43.54882049560547 24.1544326543808 43.54882049560547 22.03087592124939 C 43.54710388183594 19.90731918811798 41.17588806152344 18.18436074256897 40.551612854003906 16.268497824668884 Z M 22.772987365722656 36.571693539619446 C 14.735000610351562 36.571693539619446 8.19561767578125 30.049914836883545 8.19561767578125 22.03087592124939 C 8.19561767578125 14.013123035430908 14.735000610351562 7.490379810333252 22.772987365722656 7.490379810333252 C 30.81097412109375 7.490379810333252 37.35035705566406 14.013123035430908 37.35035705566406 22.03087592124939 C 37.35035705566406 30.049914836883545 30.81097412109375 36.571693539619446 22.772987365722656 36.571693539619446 Z M 22.772987365722656 9.864712357521057 C 16.04729461669922 9.864712357521057 10.575645446777344 15.322301387786865 10.575645446777344 22.03087592124939 C 10.575645446777344 28.739771962165833 16.04729461669922 34.19768249988556 22.772987365722656 34.19768249988556 C 29.498680114746094 34.19768249988556 34.97044372558594 28.739771962165833 34.97044372558594 22.03087592124939 C 34.97044372558594 15.322301387786865 29.498680114746094 9.864712357521057 22.772987365722656 9.864712357521057 Z M 30.895774841308594 20.60145378112793 C 30.895774841308594 20.60145378112793 26.94916534423828 23.8705415725708 26.94916534423828 23.8705415725708 C 26.94916534423828 23.8705415725708 28.21556854248047 28.828508019447327 28.21556854248047 28.828508019447327 C 28.28972625732422 29.120758295059204 28.178489685058594 29.427154898643494 27.935646057128906 29.603983998298645 C 27.69188690185547 29.780491590499878 27.365158081054688 29.79045832157135 27.109954833984375 29.630669116973877 C 27.109954833984375 29.630669116973877 22.772987365722656 26.896891236305237 22.772987365722656 26.896891236305237 C 22.772987365722656 26.896891236305237 18.436935424804688 29.630669116973877 18.436935424804688 29.630669116973877 C 18.181732177734375 29.79045832157135 17.855003356933594 29.780491590499878 17.611244201660156 29.603983998298645 C 17.367599487304688 29.427154898643494 17.256248474121094 29.120758295059204 17.331321716308594 28.828508019447327 C 17.331321716308594 28.828508019447327 18.59772491455078 23.8705415725708 18.59772491455078 23.8705415725708 C 18.59772491455078 23.8705415725708 14.651115417480469 20.60145378112793 14.651115417480469 20.60145378112793 C 14.418914794921875 20.40983533859253 14.327934265136719 20.096044063568115 14.421546936035156 19.810223937034607 C 14.514244079589844 19.525046825408936 14.772994995117188 19.3241046667099 15.074089050292969 19.304492712020874 C 15.074089050292969 19.304492712020874 20.19257354736328 18.97366154193878 20.19257354736328 18.97366154193878 C 20.19257354736328 18.97366154193878 22.090347290039062 14.220495343208313 22.090347290039062 14.220495343208313 C 22.201583862304688 13.940783858299255 22.472694396972656 13.757524609565735 22.773902893066406 13.757524609565735 C 23.074996948242188 13.757524609565735 23.346107482910156 13.940783858299255 23.45745849609375 14.220495343208313 C 23.45745849609375 14.220495343208313 25.35523223876953 18.97366154193878 25.35523223876953 18.97366154193878 C 25.35523223876953 18.97366154193878 30.473602294921875 19.304492712020874 30.473602294921875 19.304492712020874 C 30.774810791015625 19.3241046667099 31.03264617919922 19.525046825408936 31.126258850097656 19.810223937034607 C 31.218040466308594 20.096044063568115 31.127174377441406 20.40983533859253 30.895774841308594 20.60145378112793 Z"/></g></svg>